<?xml version="1.0" standalone="no"?>
<!DOCTYPE svg PUBLIC "-//W3C//DTD SVG 20010904//EN"
 "http://www.w3.org/TR/2001/REC-SVG-20010904/DTD/svg10.dtd">
<svg version="1.0" xmlns="http://www.w3.org/2000/svg"
 width="242.000000pt" height="242.000000pt" viewBox="0 0 242.000000 242.000000"
 preserveAspectRatio="xMidYMid meet">
<metadata>
Created by potrace 1.14, written by Peter Selinger 2001-2017
</metadata>
<g transform="translate(0.000000,242.000000) scale(0.100000,-0.100000)"
fill="#000000" stroke="none">
<path d="M2228 2285 c-5 -6 -26 -11 -49 -14 -13 -2 -99 -88 -99 -99 0 -7 -5
-12 -10 -12 -14 0 -150 -136 -150 -150 0 -5 -5 -10 -11 -10 -6 0 -55 -44 -110
-97 -122 -119 -611 -608 -681 -680 -44 -46 -52 -51 -65 -38 -8 8 -21 15 -28
15 -8 0 -17 9 -20 21 -4 11 -18 24 -31 29 -13 5 -24 16 -24 25 0 8 -11 21 -25
27 -14 6 -25 17 -25 25 0 7 -11 19 -25 25 -13 6 -27 20 -31 30 -3 11 -17 23
-30 28 -13 5 -24 16 -24 25 0 8 -11 20 -24 26 -13 6 -27 20 -29 31 -3 11 -14
22 -25 25 -11 3 -22 14 -25 25 -3 11 -15 22 -27 25 -12 3 -26 16 -31 29 -4 13
-15 24 -24 24 -9 0 -20 12 -25 26 -6 14 -19 28 -29 31 -11 3 -21 14 -24 25 -3
11 -15 22 -26 25 -11 3 -23 14 -27 25 -3 10 -17 24 -30 30 -13 6 -26 19 -29
30 -4 10 -13 18 -20 18 -8 0 -21 14 -30 30 -9 17 -22 30 -31 30 -8 0 -19 11
-24 25 -5 14 -16 25 -25 25 -8 0 -21 11 -27 25 -19 41 -106 47 -124 7 -4 -9
-8 -419 -9 -910 -2 -850 -1 -893 16 -902 10 -6 29 -10 44 -10 18 0 24 -4 19
-13 -6 -9 -4 -9 8 1 13 10 19 10 31 -3 17 -16 102 -22 93 -6 -6 10 11 10 29 0
6 -3 57 -6 114 -8 84 -2 102 0 96 11 -6 10 -5 11 6 1 17 -17 43 -17 33 0 -5 7
0 6 11 -3 11 -9 16 -10 11 -2 -4 7 -1 12 9 12 9 0 14 -4 11 -8 -2 -4 4 -9 15
-9 12 -1 17 3 13 9 -5 7 -2 8 7 3 7 -5 31 -10 52 -11 32 -2 37 1 33 14 -5 13
-2 12 9 -2 15 -20 15 -20 31 0 8 10 13 13 9 6 -8 -16 17 -16 34 1 11 10 13 9
8 -6 -6 -16 -5 -16 18 -1 15 10 25 12 25 5 0 -6 -5 -11 -12 -11 -6 0 -8 -3 -5
-6 4 -4 13 -1 22 6 10 8 15 9 15 1 0 -15 27 -14 33 2 4 9 6 9 6 0 1 -7 13 -13
27 -13 14 0 23 4 19 9 -3 5 -1 13 5 16 6 4 9 1 8 -7 -2 -9 9 -13 35 -14 31 -1
37 2 32 15 -4 14 -4 14 7 1 15 -17 104 -27 93 -10 -3 5 -11 7 -17 4 -7 -4 -8
-2 -4 4 7 12 36 5 36 -9 0 -5 12 -9 26 -9 14 0 23 4 19 9 -3 5 -1 13 5 16 6 4
10 3 9 -2 -4 -22 2 -25 15 -7 14 18 15 18 21 1 7 -17 8 -17 22 0 8 10 12 12 8
6 -3 -7 -3 -13 2 -14 51 -6 61 -5 56 8 -4 9 0 11 11 7 9 -3 13 -10 10 -15 -9
-14 10 -10 36 8 20 13 22 14 13 2 -11 -14 -8 -16 21 -15 23 1 32 5 29 14 -4 8
0 10 11 6 9 -3 14 -9 12 -13 -3 -4 4 -8 15 -8 12 -1 17 3 13 9 -5 7 -2 8 7 2
8 -5 71 -9 140 -9 100 -1 126 2 122 12 -4 9 0 11 11 7 9 -3 14 -9 12 -13 -3
-4 4 -8 15 -8 11 -1 17 2 14 7 -3 5 0 12 6 16 7 4 9 3 6 -3 -4 -6 0 -14 9 -17
25 -10 36 -7 28 7 -6 9 -4 9 7 -1 15 -13 43 -17 35 -4 -3 5 1 9 9 9 8 0 12 -3
11 -6 -6 -8 151 -7 159 1 4 4 13 4 21 1 8 -3 14 0 14 6 0 6 15 11 34 11 65 0
61 -68 60 1062 l0 1029 -25 25 c-14 13 -28 22 -31 19z m-1734 -2143 c3 -5 -1
-9 -9 -9 -8 0 -15 4 -15 9 0 10 17 10 24 0z m251 -2 c3 -5 1 -10 -4 -10 -6 0
-11 5 -11 10 0 6 2 10 4 10 3 0 8 -4 11 -10z m325 -4 c-7 -7 -13 -7 -20 0 -6
6 -3 10 10 10 13 0 16 -4 10 -10z m670 4 c0 -5 -8 -10 -17 -10 -15 0 -16 2 -3
10 19 12 20 12 20 0z m310 2 c0 -5 -7 -9 -15 -9 -8 0 -12 4 -9 9 3 4 9 8 15 8
5 0 9 -4 9 -8z"/>
<path d="M220 130 c0 -5 5 -10 11 -10 5 0 7 5 4 10 -3 6 -8 10 -11 10 -2 0 -4
-4 -4 -10z"/>
</g>
</svg>
